<svg width="80" height="80" viewBox="0 0 80 80" fill="none" xmlns="http://www.w3.org/2000/svg">
<path d="M58.3329 46.6669C59.0762 46.6669 59.7895 46.5536 60.4995 46.4502C60.2695 47.2236 60.0328 48.0102 59.6528 48.7169C59.2728 49.7436 58.6795 50.6336 58.0895 51.5302C57.5962 52.5002 56.7262 53.1569 56.0862 53.9869C55.4162 54.7936 54.5028 55.3302 53.7795 56.0002C53.0695 56.7002 52.1395 57.0502 51.3995 57.5436C50.6262 57.9869 49.9529 58.4769 49.2329 58.7102L47.4362 59.4502L45.8562 60.1069L47.4728 66.5669L49.4628 66.0869C50.0995 65.9269 50.8762 65.7402 51.7595 65.5169C52.6628 65.3502 53.6262 64.8936 54.6995 64.4769C55.7595 64.0036 56.9862 63.6836 58.1262 62.9236C59.2729 62.1969 60.5962 61.5902 61.7628 60.6169C62.8928 59.6136 64.2562 58.7436 65.2629 57.4669C66.3629 56.2736 67.4495 55.0202 68.2928 53.5936C69.2695 52.2336 69.9329 50.7402 70.6329 49.2636C71.2662 47.7869 71.7762 46.2769 72.1929 44.8102C72.9829 41.8702 73.3362 39.0769 73.4729 36.6869C73.5862 34.2936 73.5195 32.3036 73.3795 30.8636C73.3295 30.1836 73.2362 29.5236 73.1695 29.0669L73.0862 28.5069L72.9995 28.5269C72.4066 25.7575 71.0418 23.2125 69.063 21.1863C67.0841 19.1601 64.572 17.7356 61.8174 17.0775C59.0627 16.4194 56.178 16.5546 53.497 17.4674C50.816 18.3803 48.4482 20.0336 46.6675 22.2359C44.8868 24.4383 43.766 27.0998 43.4348 29.9126C43.1036 32.7253 43.5754 35.5744 44.7957 38.1302C46.0161 40.6859 47.9351 42.844 50.3307 44.3547C52.7263 45.8654 55.5007 46.6671 58.3329 46.6669ZM21.6662 46.6669C22.4095 46.6669 23.1229 46.5536 23.8329 46.4502C23.6029 47.2236 23.3662 48.0102 22.9862 48.7169C22.6062 49.7436 22.0129 50.6336 21.4229 51.5302C20.9295 52.5002 20.0595 53.1569 19.4195 53.9869C18.7495 54.7936 17.8362 55.3302 17.1129 56.0002C16.4029 56.7002 15.4729 57.0502 14.7329 57.5436C13.9595 57.9869 13.2862 58.4769 12.5662 58.7102L10.7695 59.4502L9.18952 60.1069L10.8062 66.5669L12.7962 66.0869C13.4329 65.9269 14.2095 65.7402 15.0928 65.5169C15.9962 65.3502 16.9595 64.8936 18.0329 64.4769C19.0895 64.0002 20.3195 63.6836 21.4595 62.9202C22.6062 62.1936 23.9295 61.5869 25.0962 60.6136C26.2262 59.6102 27.5895 58.7402 28.5962 57.4669C29.6962 56.2736 30.7829 55.0202 31.6262 53.5936C32.6029 52.2336 33.2662 50.7402 33.9662 49.2636C34.5995 47.7869 35.1095 46.2769 35.5262 44.8102C36.3162 41.8702 36.6695 39.0769 36.8062 36.6869C36.9195 34.2936 36.8529 32.3036 36.7129 30.8636C36.6629 30.1836 36.5695 29.5236 36.5029 29.0669L36.4195 28.5069L36.3329 28.5269C35.74 25.7575 34.3752 23.2125 32.3963 21.1863C30.4174 19.1601 27.9054 17.7356 25.1507 17.0775C22.3961 16.4194 19.5114 16.5546 16.8303 17.4674C14.1493 18.3803 11.7815 20.0336 10.0008 22.2359C8.22016 24.4383 7.09937 27.0998 6.76813 29.9126C6.43689 32.7253 6.90874 35.5744 8.12908 38.1301C9.34942 40.6859 11.2684 42.844 13.664 44.3547C16.0596 45.8654 18.834 46.6671 21.6662 46.6669Z" fill="#B96118"/>
</svg>
