<svg width="80" height="80" viewBox="0 0 80 80" fill="none" xmlns="http://www.w3.org/2000/svg">
<path d="M21.6667 33.3333C20.9233 33.3333 20.21 33.4467 19.5 33.55C19.73 32.7767 19.9667 31.99 20.3467 31.2833C20.7267 30.2567 21.32 29.3667 21.91 28.47C22.4033 27.5 23.2733 26.8433 23.9133 26.0133C24.5833 25.2067 25.4967 24.67 26.22 24C26.93 23.3 27.86 22.95 28.6 22.4567C29.3733 22.0133 30.0467 21.5233 30.7667 21.29L32.5633 20.55L34.1433 19.8933L32.5267 13.4333L30.5367 13.9133C29.9 14.0733 29.1233 14.26 28.24 14.4833C27.3367 14.65 26.3733 15.1067 25.3 15.5233C24.24 15.9967 23.0133 16.3167 21.8733 17.0767C20.7267 17.8033 19.4033 18.41 18.2367 19.3833C17.1067 20.3867 15.7433 21.2567 14.7367 22.5333C13.6367 23.7267 12.55 24.98 11.7067 26.4067C10.73 27.7667 10.0667 29.26 9.36666 30.7367C8.73333 32.2133 8.22333 33.7234 7.80666 35.19C7.01666 38.13 6.66333 40.9234 6.52666 43.3134C6.41333 45.7067 6.48 47.6967 6.62 49.1367C6.67 49.8167 6.76333 50.4767 6.83 50.9333L6.91333 51.4933L7 51.4734C7.59287 54.2428 8.95767 56.7878 10.9365 58.8139C12.9154 60.8401 15.4275 62.2647 18.1821 62.9228C20.9368 63.5809 23.8215 63.4457 26.5025 62.5328C29.1835 61.6199 31.5513 59.9667 33.332 57.7643C35.1127 55.5619 36.2335 52.9004 36.5647 50.0877C36.896 47.2749 36.4241 44.4259 35.2038 41.8701C33.9834 39.3143 32.0645 37.1562 29.6688 35.6455C27.2732 34.1348 24.4988 33.3332 21.6667 33.3333ZM58.3333 33.3333C57.59 33.3333 56.8767 33.4467 56.1667 33.55C56.3967 32.7767 56.6333 31.99 57.0133 31.2833C57.3933 30.2567 57.9867 29.3667 58.5767 28.47C59.07 27.5 59.94 26.8433 60.58 26.0133C61.25 25.2067 62.1633 24.67 62.8867 24C63.5967 23.3 64.5267 22.95 65.2667 22.4567C66.04 22.0133 66.7133 21.5233 67.4333 21.29L69.23 20.55L70.81 19.8933L69.1933 13.4333L67.2033 13.9133C66.5667 14.0733 65.79 14.26 64.9067 14.4833C64.0033 14.65 63.04 15.1067 61.9667 15.5233C60.91 16 59.68 16.3167 58.54 17.08C57.3933 17.8067 56.07 18.4133 54.9033 19.3867C53.7733 20.39 52.41 21.26 51.4033 22.5333C50.3033 23.7267 49.2167 24.98 48.3733 26.4067C47.3967 27.7667 46.7333 29.26 46.0333 30.7367C45.4 32.2133 44.89 33.7234 44.4733 35.19C43.6833 38.13 43.33 40.9234 43.1933 43.3134C43.08 45.7067 43.1467 47.6967 43.2867 49.1367C43.3367 49.8167 43.43 50.4767 43.4967 50.9333L43.58 51.4933L43.6667 51.4734C44.2595 54.2428 45.6243 56.7878 47.6032 58.8139C49.5821 60.8401 52.0941 62.2647 54.8488 62.9228C57.6035 63.5809 60.4881 63.4457 63.1692 62.5328C65.8502 61.6199 68.218 59.9667 69.9987 57.7643C71.7794 55.5619 72.9001 52.9004 73.2314 50.0877C73.5626 47.2749 73.0908 44.4259 71.8704 41.8701C70.6501 39.3143 68.7311 37.1562 66.3355 35.6455C63.9399 34.1348 61.1655 33.3332 58.3333 33.3333Z" fill="#B96118"/>
</svg>
